<?xml version="1.0" encoding="UTF-8" standalone="no"?>
<!-- Created with Inkscape (http://www.inkscape.org/) -->

<svg
   width="793.70081"
   height="1122.5197"
   viewBox="0 0 210 297"
   version="1.1"
   id="svg5"
   inkscape:version="1.1.1 (3bf5ae0d25, 2021-09-20)"
   sodipodi:docname="logo1.svg"
   xmlns:inkscape="http://www.inkscape.org/namespaces/inkscape"
   xmlns:sodipodi="http://sodipodi.sourceforge.net/DTD/sodipodi-0.dtd"
   xmlns="http://www.w3.org/2000/svg"
   xmlns:svg="http://www.w3.org/2000/svg">
  <sodipodi:namedview
     id="namedview7"
     pagecolor="#ffffff"
     bordercolor="#666666"
     borderopacity="1.0"
     inkscape:pageshadow="2"
     inkscape:pageopacity="0.0"
     inkscape:pagecheckerboard="0"
     inkscape:document-units="px"
     showgrid="false"
     units="px"
     showguides="false"
     inkscape:zoom="2.8284271"
     inkscape:cx="502.39937"
     inkscape:cy="378.12535"
     inkscape:window-width="1920"
     inkscape:window-height="1017"
     inkscape:window-x="-8"
     inkscape:window-y="-8"
     inkscape:window-maximized="1"
     inkscape:current-layer="layer1" />
  <defs
     id="defs2">
    <linearGradient
       id="linearGradient1176"
       inkscape:swatch="solid">
      <stop
         style="stop-color:#000000;stop-opacity:1;"
         offset="0"
         id="stop1174" />
    </linearGradient>
  </defs>
  <g
     inkscape:label="Warstwa 1"
     inkscape:groupmode="layer"
     id="layer1">
    <path
       id="rect1202"
       style="fill:none;stroke:#000000;stroke-width:3.89654;stroke-miterlimit:4;stroke-dasharray:none;stroke-opacity:1"
       d="M 494.36914 269.49609 A 85.92759 85.92759 0 0 0 411.97852 331.14648 A 32.620373 32.620373 0 0 0 400.03516 328.87695 A 32.620373 32.620373 0 0 0 367.62109 358.03711 A 52.75 52.75 0 0 0 365.75 358 A 52.75 52.75 0 0 0 313 410.75 A 52.75 52.75 0 0 0 363.93164 463.43164 L 363.93164 464.02344 L 578.76367 464.02344 L 578.76367 463.48047 A 52.75 52.75 0 0 0 627.6875 410.875 A 52.75 52.75 0 0 0 580.18555 358.38867 A 85.92759 85.92759 0 0 0 580.29688 355.42383 A 85.92759 85.92759 0 0 0 494.36914 269.49609 z "
       transform="scale(0.26458333)" />
  </g>
</svg>
